<?xml version="1.0" standalone="no"?>
<!DOCTYPE svg PUBLIC "-//W3C//DTD SVG 20010904//EN"
 "http://www.w3.org/TR/2001/REC-SVG-20010904/DTD/svg10.dtd">
<svg version="1.0" xmlns="http://www.w3.org/2000/svg"
 width="158.000000pt" height="72.000000pt" viewBox="0 0 158.000000 72.000000"
 preserveAspectRatio="xMidYMid meet">

<g transform="translate(0.000000,72.000000) scale(0.100000,-0.100000)"
fill="#000000" stroke="none">
<path d="M677 613 c-15 -4 -67 -78 -67 -96 0 -4 15 -7 33 -7 26 0 43 10 80 48
26 27 44 51 41 55 -8 8 -58 8 -87 0z"/>
<path d="M1412 608 c-23 -28 -18 -74 9 -88 52 -28 106 28 74 76 -17 26 -65 33
-83 12z"/>
<path d="M90 366 l0 -246 45 0 44 0 3 92 c3 93 3 93 30 96 24 3 33 -5 74 -70
69 -110 79 -118 136 -118 26 0 48 2 48 6 0 7 -76 119 -112 166 l-29 37 31 16
c41 21 74 93 67 142 -15 90 -61 115 -219 121 l-118 4 0 -246z m218 148 c16
-11 22 -25 22 -53 0 -52 -26 -73 -95 -79 l-55 -4 0 76 0 76 53 0 c31 0 61 -6
75 -16z"/>
<path d="M560 447 c-53 -35 -75 -82 -74 -153 1 -113 61 -174 171 -174 64 0 92
8 125 38 14 11 15 19 7 34 -9 16 -17 19 -42 13 -90 -19 -118 -18 -142 5 -13
12 -25 32 -28 45 l-4 24 111 3 111 3 3 37 c4 50 -21 104 -60 128 -47 29 -134
28 -178 -3z m134 -58 c46 -36 35 -49 -44 -49 -54 0 -70 3 -70 14 0 18 47 56
70 56 10 0 29 -9 44 -21z"/>
<path d="M850 295 l0 -175 45 0 45 0 0 126 c0 139 6 153 62 154 40 0 48 -25
48 -159 l0 -121 45 0 45 0 0 123 c0 136 8 157 63 157 39 0 47 -26 47 -159 l0
-121 45 0 45 0 0 118 c0 194 -25 238 -133 230 -41 -3 -64 -10 -78 -25 l-21
-20 -23 23 c-28 28 -81 32 -125 9 -25 -13 -29 -13 -34 0 -3 9 -19 15 -41 15
l-35 0 0 -175z"/>
<path d="M1410 295 l0 -175 40 0 40 0 0 175 0 175 -40 0 -40 0 0 -175z"/>
</g>
</svg>
